<svg width="375" height="743" viewBox="0 0 375 743" fill="none" xmlns="http://www.w3.org/2000/svg">
<g opacity="0.4" filter="url(#filter0_f_586_12059)">
<mask id="mask0_586_12059" style="mask-type:alpha" maskUnits="userSpaceOnUse" x="0" y="0" width="375" height="748">
<path d="M0 0H375V748H0V0Z" fill="#213745"/>
</mask>
<g mask="url(#mask0_586_12059)">
<line y1="-0.5" x2="472.581" y2="-0.5" transform="matrix(0.706628 -0.707586 0.706628 0.707586 4.05859 527.011)" stroke="url(#paint0_angular_586_12059)"/>
<line y1="-0.5" x2="472.578" y2="-0.5" transform="matrix(0.706622 -0.707591 0.706623 0.707591 -106.758 334.392)" stroke="url(#paint1_angular_586_12059)"/>
<line y1="-0.5" x2="472.581" y2="-0.5" transform="matrix(0.706628 -0.707586 0.706628 0.707586 12.2109 541.856)" stroke="url(#paint2_angular_586_12059)"/>
<line y1="-0.5" x2="472.58" y2="-0.5" transform="matrix(0.706627 -0.707586 0.706628 0.707586 -98.6055 349.238)" stroke="url(#paint3_angular_586_12059)"/>
<line y1="-0.5" x2="472.581" y2="-0.5" transform="matrix(0.706628 -0.707586 0.706628 0.707586 20.3672 556.701)" stroke="url(#paint4_angular_586_12059)"/>
<line y1="-0.5" x2="472.581" y2="-0.5" transform="matrix(0.706628 -0.707586 0.706628 0.707586 -90.4531 364.083)" stroke="url(#paint5_angular_586_12059)"/>
<line y1="-0.5" x2="472.581" y2="-0.5" transform="matrix(0.706628 -0.707586 0.706628 0.707586 28.5234 571.546)" stroke="url(#paint6_angular_586_12059)"/>
<line y1="-0.5" x2="472.581" y2="-0.5" transform="matrix(0.706628 -0.707586 0.706628 0.707586 -82.293 378.928)" stroke="url(#paint7_angular_586_12059)"/>
<line y1="-0.5" x2="472.581" y2="-0.5" transform="matrix(0.706628 -0.707586 0.706628 0.707586 36.6758 586.392)" stroke="url(#paint8_angular_586_12059)"/>
<line y1="-0.5" x2="472.581" y2="-0.5" transform="matrix(0.706628 -0.707586 0.706628 0.707586 -74.1406 393.774)" stroke="url(#paint9_angular_586_12059)"/>
<line y1="-0.5" x2="472.581" y2="-0.5" transform="matrix(0.706628 -0.707586 0.706628 0.707586 44.8281 601.238)" stroke="url(#paint10_angular_586_12059)"/>
<line y1="-0.5" x2="472.581" y2="-0.5" transform="matrix(0.706628 -0.707586 0.706628 0.707586 -65.9883 408.619)" stroke="url(#paint11_angular_586_12059)"/>
<line y1="-0.5" x2="472.581" y2="-0.5" transform="matrix(0.706628 -0.707586 0.706628 0.707586 52.9844 616.083)" stroke="url(#paint12_angular_586_12059)"/>
<line y1="-0.5" x2="472.581" y2="-0.5" transform="matrix(0.706628 -0.707586 0.706628 0.707586 -57.8359 423.464)" stroke="url(#paint13_angular_586_12059)"/>
<line y1="-0.5" x2="472.581" y2="-0.5" transform="matrix(0.706628 -0.707586 0.706628 0.707586 61.1406 630.928)" stroke="url(#paint14_angular_586_12059)"/>
<line y1="-0.5" x2="472.581" y2="-0.5" transform="matrix(0.706628 -0.707586 0.706628 0.707586 -49.6797 438.309)" stroke="url(#paint15_angular_586_12059)"/>
<line y1="-0.5" x2="472.581" y2="-0.5" transform="matrix(0.706628 -0.707586 0.706628 0.707586 69.293 645.773)" stroke="url(#paint16_angular_586_12059)"/>
<line y1="-0.5" x2="472.581" y2="-0.5" transform="matrix(0.706628 -0.707586 0.706628 0.707586 -41.5234 453.155)" stroke="url(#paint17_angular_586_12059)"/>
<line y1="-0.5" x2="472.581" y2="-0.5" transform="matrix(0.706628 -0.707586 0.706628 0.707586 77.4453 660.618)" stroke="url(#paint18_angular_586_12059)"/>
<line y1="-0.5" x2="472.581" y2="-0.5" transform="matrix(0.706628 -0.707586 0.706628 0.707586 -33.3711 468)" stroke="url(#paint19_angular_586_12059)"/>
<line y1="-0.5" x2="472.581" y2="-0.5" transform="matrix(0.706628 -0.707586 0.706628 0.707586 85.5977 675.464)" stroke="url(#paint20_angular_586_12059)"/>
<line y1="-0.5" x2="472.581" y2="-0.5" transform="matrix(0.706628 -0.707586 0.706628 0.707586 93.7539 690.31)" stroke="url(#paint21_angular_586_12059)"/>
<line y1="-0.5" x2="472.581" y2="-0.5" transform="matrix(0.706628 -0.707586 0.706628 0.707586 -24.8477 483.959)" stroke="url(#paint22_angular_586_12059)"/>
<line y1="-0.5" x2="472.581" y2="-0.5" transform="matrix(0.706628 -0.707586 0.706628 0.707586 101.91 705.155)" stroke="url(#paint23_angular_586_12059)"/>
<line y1="-0.5" x2="472.581" y2="-0.5" transform="matrix(0.706628 -0.707586 0.706628 0.707586 -16.6953 498.804)" stroke="url(#paint24_angular_586_12059)"/>
<line y1="-0.5" x2="472.581" y2="-0.5" transform="matrix(0.706628 -0.707586 0.706628 0.707586 110.062 720)" stroke="url(#paint25_angular_586_12059)"/>
<line y1="-0.5" x2="472.581" y2="-0.5" transform="matrix(0.706628 -0.707586 0.706628 0.707586 -8.53906 513.649)" stroke="url(#paint26_angular_586_12059)"/>
</g>
</g>
<defs>
<filter id="filter0_f_586_12059" x="-1" y="-1" width="377" height="745" filterUnits="userSpaceOnUse" color-interpolation-filters="sRGB">
<feFlood flood-opacity="0" result="BackgroundImageFix"/>
<feBlend mode="normal" in="SourceGraphic" in2="BackgroundImageFix" result="shape"/>
<feGaussianBlur stdDeviation="0.5" result="effect1_foregroundBlur_586_12059"/>
</filter>
<radialGradient id="paint0_angular_586_12059" cx="0" cy="0" r="1" gradientUnits="userSpaceOnUse" gradientTransform="translate(236.29 0.5) rotate(90) scale(0.5 236.29)">
<stop stop-color="#7AB0D3"/>
<stop offset="0.466667" stop-color="#8DC440"/>
</radialGradient>
<radialGradient id="paint1_angular_586_12059" cx="0" cy="0" r="1" gradientUnits="userSpaceOnUse" gradientTransform="translate(236.289 0.5) rotate(90) scale(0.5 236.289)">
<stop stop-color="#7AB0D3"/>
<stop offset="0.466667" stop-color="#8DC440"/>
</radialGradient>
<radialGradient id="paint2_angular_586_12059" cx="0" cy="0" r="1" gradientUnits="userSpaceOnUse" gradientTransform="translate(236.29 0.5) rotate(90) scale(0.5 236.29)">
<stop stop-color="#7AB0D3"/>
<stop offset="0.466667" stop-color="#8DC440"/>
</radialGradient>
<radialGradient id="paint3_angular_586_12059" cx="0" cy="0" r="1" gradientUnits="userSpaceOnUse" gradientTransform="translate(236.29 0.5) rotate(90) scale(0.5 236.29)">
<stop stop-color="#7AB0D3"/>
<stop offset="0.466667" stop-color="#8DC440"/>
</radialGradient>
<radialGradient id="paint4_angular_586_12059" cx="0" cy="0" r="1" gradientUnits="userSpaceOnUse" gradientTransform="translate(236.29 0.5) rotate(90) scale(0.5 236.29)">
<stop stop-color="#7AB0D3"/>
<stop offset="0.466667" stop-color="#8DC440"/>
</radialGradient>
<radialGradient id="paint5_angular_586_12059" cx="0" cy="0" r="1" gradientUnits="userSpaceOnUse" gradientTransform="translate(236.29 0.5) rotate(90) scale(0.5 236.29)">
<stop stop-color="#7AB0D3"/>
<stop offset="0.466667" stop-color="#8DC440"/>
</radialGradient>
<radialGradient id="paint6_angular_586_12059" cx="0" cy="0" r="1" gradientUnits="userSpaceOnUse" gradientTransform="translate(236.29 0.5) rotate(90) scale(0.5 236.29)">
<stop stop-color="#7AB0D3"/>
<stop offset="0.466667" stop-color="#8DC440"/>
</radialGradient>
<radialGradient id="paint7_angular_586_12059" cx="0" cy="0" r="1" gradientUnits="userSpaceOnUse" gradientTransform="translate(236.29 0.5) rotate(90) scale(0.5 236.29)">
<stop stop-color="#7AB0D3"/>
<stop offset="0.466667" stop-color="#8DC440"/>
</radialGradient>
<radialGradient id="paint8_angular_586_12059" cx="0" cy="0" r="1" gradientUnits="userSpaceOnUse" gradientTransform="translate(236.29 0.5) rotate(90) scale(0.5 236.29)">
<stop stop-color="#7AB0D3"/>
<stop offset="0.466667" stop-color="#8DC440"/>
</radialGradient>
<radialGradient id="paint9_angular_586_12059" cx="0" cy="0" r="1" gradientUnits="userSpaceOnUse" gradientTransform="translate(236.29 0.5) rotate(90) scale(0.5 236.29)">
<stop stop-color="#7AB0D3"/>
<stop offset="0.466667" stop-color="#8DC440"/>
</radialGradient>
<radialGradient id="paint10_angular_586_12059" cx="0" cy="0" r="1" gradientUnits="userSpaceOnUse" gradientTransform="translate(236.29 0.5) rotate(90) scale(0.5 236.29)">
<stop stop-color="#7AB0D3"/>
<stop offset="0.466667" stop-color="#8DC440"/>
</radialGradient>
<radialGradient id="paint11_angular_586_12059" cx="0" cy="0" r="1" gradientUnits="userSpaceOnUse" gradientTransform="translate(236.29 0.5) rotate(90) scale(0.5 236.29)">
<stop stop-color="#7AB0D3"/>
<stop offset="0.466667" stop-color="#8DC440"/>
</radialGradient>
<radialGradient id="paint12_angular_586_12059" cx="0" cy="0" r="1" gradientUnits="userSpaceOnUse" gradientTransform="translate(236.29 0.5) rotate(90) scale(0.5 236.29)">
<stop stop-color="#7AB0D3"/>
<stop offset="0.466667" stop-color="#8DC440"/>
</radialGradient>
<radialGradient id="paint13_angular_586_12059" cx="0" cy="0" r="1" gradientUnits="userSpaceOnUse" gradientTransform="translate(236.29 0.5) rotate(90) scale(0.5 236.29)">
<stop stop-color="#7AB0D3"/>
<stop offset="0.466667" stop-color="#8DC440"/>
</radialGradient>
<radialGradient id="paint14_angular_586_12059" cx="0" cy="0" r="1" gradientUnits="userSpaceOnUse" gradientTransform="translate(236.29 0.5) rotate(90) scale(0.5 236.29)">
<stop stop-color="#7AB0D3"/>
<stop offset="0.466667" stop-color="#8DC440"/>
</radialGradient>
<radialGradient id="paint15_angular_586_12059" cx="0" cy="0" r="1" gradientUnits="userSpaceOnUse" gradientTransform="translate(236.29 0.5) rotate(90) scale(0.5 236.29)">
<stop stop-color="#7AB0D3"/>
<stop offset="0.466667" stop-color="#8DC440"/>
</radialGradient>
<radialGradient id="paint16_angular_586_12059" cx="0" cy="0" r="1" gradientUnits="userSpaceOnUse" gradientTransform="translate(236.29 0.5) rotate(90) scale(0.5 236.29)">
<stop stop-color="#7AB0D3"/>
<stop offset="0.466667" stop-color="#8DC440"/>
</radialGradient>
<radialGradient id="paint17_angular_586_12059" cx="0" cy="0" r="1" gradientUnits="userSpaceOnUse" gradientTransform="translate(236.29 0.5) rotate(90) scale(0.5 236.29)">
<stop stop-color="#7AB0D3"/>
<stop offset="0.466667" stop-color="#8DC440"/>
</radialGradient>
<radialGradient id="paint18_angular_586_12059" cx="0" cy="0" r="1" gradientUnits="userSpaceOnUse" gradientTransform="translate(236.29 0.5) rotate(90) scale(0.5 236.29)">
<stop stop-color="#7AB0D3"/>
<stop offset="0.466667" stop-color="#8DC440"/>
</radialGradient>
<radialGradient id="paint19_angular_586_12059" cx="0" cy="0" r="1" gradientUnits="userSpaceOnUse" gradientTransform="translate(236.29 0.5) rotate(90) scale(0.5 236.29)">
<stop stop-color="#7AB0D3"/>
<stop offset="0.466667" stop-color="#8DC440"/>
</radialGradient>
<radialGradient id="paint20_angular_586_12059" cx="0" cy="0" r="1" gradientUnits="userSpaceOnUse" gradientTransform="translate(236.29 0.5) rotate(90) scale(0.5 236.29)">
<stop stop-color="#7AB0D3"/>
<stop offset="0.466667" stop-color="#8DC440"/>
</radialGradient>
<radialGradient id="paint21_angular_586_12059" cx="0" cy="0" r="1" gradientUnits="userSpaceOnUse" gradientTransform="translate(236.29 0.5) rotate(90) scale(0.5 236.29)">
<stop stop-color="#7AB0D3"/>
<stop offset="0.466667" stop-color="#8DC440"/>
</radialGradient>
<radialGradient id="paint22_angular_586_12059" cx="0" cy="0" r="1" gradientUnits="userSpaceOnUse" gradientTransform="translate(236.29 0.5) rotate(90) scale(0.5 236.29)">
<stop stop-color="#7AB0D3"/>
<stop offset="0.466667" stop-color="#8DC440"/>
</radialGradient>
<radialGradient id="paint23_angular_586_12059" cx="0" cy="0" r="1" gradientUnits="userSpaceOnUse" gradientTransform="translate(236.29 0.5) rotate(90) scale(0.5 236.29)">
<stop stop-color="#7AB0D3"/>
<stop offset="0.466667" stop-color="#8DC440"/>
</radialGradient>
<radialGradient id="paint24_angular_586_12059" cx="0" cy="0" r="1" gradientUnits="userSpaceOnUse" gradientTransform="translate(236.29 0.5) rotate(90) scale(0.5 236.29)">
<stop stop-color="#7AB0D3"/>
<stop offset="0.466667" stop-color="#8DC440"/>
</radialGradient>
<radialGradient id="paint25_angular_586_12059" cx="0" cy="0" r="1" gradientUnits="userSpaceOnUse" gradientTransform="translate(236.29 0.5) rotate(90) scale(0.5 236.29)">
<stop stop-color="#7AB0D3"/>
<stop offset="0.466667" stop-color="#8DC440"/>
</radialGradient>
<radialGradient id="paint26_angular_586_12059" cx="0" cy="0" r="1" gradientUnits="userSpaceOnUse" gradientTransform="translate(236.29 0.5) rotate(90) scale(0.5 236.29)">
<stop stop-color="#7AB0D3"/>
<stop offset="0.466667" stop-color="#8DC440"/>
</radialGradient>
</defs>
</svg>
