<svg width="21" height="20" viewBox="0 0 21 20" fill="none" xmlns="http://www.w3.org/2000/svg">
<path d="M5.6625 0.991263C6.51497 0.345657 7.55565 -0.00255388 8.625 1.41024e-05C8.925 1.41024e-05 9.16375 0.156264 9.3025 0.263764C9.4575 0.386264 9.6025 0.542514 9.7325 0.698764C9.82468 0.810719 9.87505 0.951244 9.875 1.09626V5.62501H8.51875C8.37131 5.208 8.08121 4.85654 7.6997 4.63274C7.31819 4.40894 6.86985 4.32722 6.43392 4.40201C5.99798 4.47681 5.60252 4.70331 5.31743 5.04147C5.03235 5.37964 4.87598 5.80771 4.87598 6.25001C4.87598 6.69231 5.03235 7.12038 5.31743 7.45855C5.60252 7.79671 5.99798 8.02321 6.43392 8.09801C6.86985 8.1728 7.31819 8.09108 7.6997 7.86728C8.08121 7.64348 8.37131 7.29202 8.51875 6.87501H9.875V18.6438C9.87506 18.7363 9.85457 18.8277 9.81501 18.9113C9.77546 18.995 9.71781 19.0688 9.64625 19.1275C9.06875 19.6 8.29625 20 7.375 20C5.8925 20 4.78875 19.2525 4.075 18.3588C3.5622 17.722 3.21097 16.9706 3.05125 16.1688C2.5656 16.0393 2.11531 15.8022 1.73375 15.475C1.04375 14.8838 0.5 13.925 0.5 12.5C0.5 11.8038 0.54625 11.175 0.65 10.625H4.5625C5.3575 10.625 6.0125 11.2188 6.1125 11.9863C5.69681 12.1367 5.34764 12.4292 5.12665 12.812C4.90566 13.1949 4.82706 13.6436 4.90472 14.0788C4.98239 14.514 5.21133 14.9077 5.55112 15.1905C5.89091 15.4733 6.3197 15.627 6.76176 15.6243C7.20383 15.6217 7.63075 15.4629 7.96713 15.1761C8.30352 14.8892 8.52774 14.4928 8.6002 14.0567C8.67266 13.6206 8.5887 13.1729 8.36315 12.7927C8.1376 12.4125 7.78496 12.1242 7.3675 11.9788C7.31481 11.2709 6.99641 10.6091 6.47617 10.1262C5.95593 9.64328 5.27233 9.37494 4.5625 9.37501H1.05125C1.2425 9.00251 1.49875 8.68751 1.8325 8.46376C1.91692 8.40787 2.00552 8.35856 2.0975 8.31626C1.7425 7.27626 1.835 6.05876 2.1775 5.10251C2.39625 4.48751 2.74375 3.90626 3.22125 3.51876C3.53625 3.26251 3.91125 3.09376 4.32125 3.06126C4.50125 2.20751 5.0075 1.50126 5.66375 0.991263H5.6625ZM11.125 15.625H12.0625C12.8084 15.625 13.5238 15.3287 14.0512 14.8012C14.5787 14.2738 14.875 13.5584 14.875 12.8125V10.5188C15.292 10.3713 15.6435 10.0812 15.8673 9.69971C16.0911 9.3182 16.1728 8.86986 16.098 8.43393C16.0232 7.99799 15.7967 7.60253 15.4585 7.31744C15.1204 7.03236 14.6923 6.87599 14.25 6.87599C13.8077 6.87599 13.3796 7.03236 13.0415 7.31744C12.7033 7.60253 12.4768 7.99799 12.402 8.43393C12.3272 8.86986 12.4089 9.3182 12.6327 9.69971C12.8565 10.0812 13.208 10.3713 13.625 10.5188V12.8125C13.625 13.675 12.925 14.375 12.0625 14.375H11.125V1.09626C11.1249 0.951244 11.1753 0.810719 11.2675 0.698764C11.3962 0.542514 11.5425 0.386264 11.6975 0.263764C11.835 0.156264 12.0737 1.41024e-05 12.375 1.41024e-05C13.4443 -0.00255388 14.485 0.345657 15.3375 0.991263C15.9937 1.50126 16.5 2.20751 16.6787 3.06126C17.0887 3.09251 17.4637 3.26251 17.7787 3.51876C18.2562 3.90626 18.6038 4.48751 18.8225 5.10251C19.165 6.05876 19.2575 7.27751 18.9025 8.31501C18.9925 8.35751 19.0812 8.40751 19.1675 8.46501C19.5112 8.69376 19.7725 9.02126 19.965 9.40751C20.3438 10.1638 20.5 11.2188 20.5 12.5C20.5 13.9263 19.9563 14.8838 19.2663 15.475C18.8847 15.8022 18.4344 16.0393 17.9487 16.1688C17.8237 16.8663 17.4737 17.6738 16.925 18.3588C16.2125 19.2525 15.1075 20 13.625 20C12.705 20 11.9312 19.6 11.355 19.1275C11.2832 19.069 11.2253 18.9952 11.1855 18.9115C11.1458 18.8279 11.1251 18.7364 11.125 18.6438V15.625ZM6.75 5.62501C6.58424 5.62501 6.42527 5.69086 6.30806 5.80807C6.19085 5.92528 6.125 6.08425 6.125 6.25001C6.125 6.41577 6.19085 6.57474 6.30806 6.69195C6.42527 6.80916 6.58424 6.87501 6.75 6.87501C6.91576 6.87501 7.07473 6.80916 7.19194 6.69195C7.30915 6.57474 7.375 6.41577 7.375 6.25001C7.375 6.08425 7.30915 5.92528 7.19194 5.80807C7.07473 5.69086 6.91576 5.62501 6.75 5.62501ZM6.75 13.125C6.58424 13.125 6.42527 13.1909 6.30806 13.3081C6.19085 13.4253 6.125 13.5842 6.125 13.75C6.125 13.9158 6.19085 14.0747 6.30806 14.1919C6.42527 14.3092 6.58424 14.375 6.75 14.375C6.91576 14.375 7.07473 14.3092 7.19194 14.1919C7.30915 14.0747 7.375 13.9158 7.375 13.75C7.375 13.5842 7.30915 13.4253 7.19194 13.3081C7.07473 13.1909 6.91576 13.125 6.75 13.125ZM14.25 9.37501C14.4158 9.37501 14.5747 9.30916 14.6919 9.19195C14.8092 9.07474 14.875 8.91577 14.875 8.75001C14.875 8.58425 14.8092 8.42528 14.6919 8.30807C14.5747 8.19086 14.4158 8.12501 14.25 8.12501C14.0842 8.12501 13.9253 8.19086 13.8081 8.30807C13.6908 8.42528 13.625 8.58425 13.625 8.75001C13.625 8.91577 13.6908 9.07474 13.8081 9.19195C13.9253 9.30916 14.0842 9.37501 14.25 9.37501Z" fill="white" fill-opacity="0.5"/>
</svg>
